<svg width="266" height="75" viewBox="0 0 266 75" fill="none" xmlns="http://www.w3.org/2000/svg">
<rect width="75" height="75" rx="20" fill="url(#paint0_linear_0_1)"/>
<path d="M103.125 37.0391H94.4766L94.4297 33.4062H102.281C103.578 33.4062 104.711 33.1875 105.68 32.75C106.648 32.3125 107.398 31.6875 107.93 30.875C108.477 30.0469 108.75 29.0625 108.75 27.9219C108.75 26.6719 108.508 25.6562 108.023 24.875C107.555 24.0781 106.828 23.5 105.844 23.1406C104.875 22.7656 103.641 22.5781 102.141 22.5781H95.4844V53H90.9609V18.875H102.141C103.891 18.875 105.453 19.0547 106.828 19.4141C108.203 19.7578 109.367 20.3047 110.32 21.0547C111.289 21.7891 112.023 22.7266 112.523 23.8672C113.023 25.0078 113.273 26.375 113.273 27.9688C113.273 29.375 112.914 30.6484 112.195 31.7891C111.477 32.9141 110.477 33.8359 109.195 34.5547C107.93 35.2734 106.445 35.7344 104.742 35.9375L103.125 37.0391ZM102.914 53H92.6953L95.25 49.3203H102.914C104.352 49.3203 105.57 49.0703 106.57 48.5703C107.586 48.0703 108.359 47.3672 108.891 46.4609C109.422 45.5391 109.688 44.4531 109.688 43.2031C109.688 41.9375 109.461 40.8438 109.008 39.9219C108.555 39 107.844 38.2891 106.875 37.7891C105.906 37.2891 104.656 37.0391 103.125 37.0391H96.6797L96.7266 33.4062H105.539L106.5 34.7188C108.141 34.8594 109.531 35.3281 110.672 36.125C111.812 36.9062 112.68 37.9062 113.273 39.125C113.883 40.3438 114.188 41.6875 114.188 43.1562C114.188 45.2812 113.719 47.0781 112.781 48.5469C111.859 50 110.555 51.1094 108.867 51.875C107.18 52.625 105.195 53 102.914 53ZM130.734 53.4688C128.969 53.4688 127.367 53.1719 125.93 52.5781C124.508 51.9688 123.281 51.1172 122.25 50.0234C121.234 48.9297 120.453 47.6328 119.906 46.1328C119.359 44.6328 119.086 42.9922 119.086 41.2109V40.2266C119.086 38.1641 119.391 36.3281 120 34.7188C120.609 33.0938 121.438 31.7188 122.484 30.5938C123.531 29.4688 124.719 28.6172 126.047 28.0391C127.375 27.4609 128.75 27.1719 130.172 27.1719C131.984 27.1719 133.547 27.4844 134.859 28.1094C136.188 28.7344 137.273 29.6094 138.117 30.7344C138.961 31.8438 139.586 33.1562 139.992 34.6719C140.398 36.1719 140.602 37.8125 140.602 39.5938V41.5391H121.664V38H136.266V37.6719C136.203 36.5469 135.969 35.4531 135.562 34.3906C135.172 33.3281 134.547 32.4531 133.688 31.7656C132.828 31.0781 131.656 30.7344 130.172 30.7344C129.188 30.7344 128.281 30.9453 127.453 31.3672C126.625 31.7734 125.914 32.3828 125.32 33.1953C124.727 34.0078 124.266 35 123.938 36.1719C123.609 37.3438 123.445 38.6953 123.445 40.2266V41.2109C123.445 42.4141 123.609 43.5469 123.938 44.6094C124.281 45.6562 124.773 46.5781 125.414 47.375C126.07 48.1719 126.859 48.7969 127.781 49.25C128.719 49.7031 129.781 49.9297 130.969 49.9297C132.5 49.9297 133.797 49.6172 134.859 48.9922C135.922 48.3672 136.852 47.5312 137.648 46.4844L140.273 48.5703C139.727 49.3984 139.031 50.1875 138.188 50.9375C137.344 51.6875 136.305 52.2969 135.07 52.7656C133.852 53.2344 132.406 53.4688 130.734 53.4688ZM156.281 27.6406V30.9688H142.57V27.6406H156.281ZM147.211 21.4766H151.547V46.7188C151.547 47.5781 151.68 48.2266 151.945 48.6641C152.211 49.1016 152.555 49.3906 152.977 49.5312C153.398 49.6719 153.852 49.7422 154.336 49.7422C154.695 49.7422 155.07 49.7109 155.461 49.6484C155.867 49.5703 156.172 49.5078 156.375 49.4609L156.398 53C156.055 53.1094 155.602 53.2109 155.039 53.3047C154.492 53.4141 153.828 53.4688 153.047 53.4688C151.984 53.4688 151.008 53.2578 150.117 52.8359C149.227 52.4141 148.516 51.7109 147.984 50.7266C147.469 49.7266 147.211 48.3828 147.211 46.6953V21.4766ZM171.984 27.6406V30.9688H158.273V27.6406H171.984ZM162.914 21.4766H167.25V46.7188C167.25 47.5781 167.383 48.2266 167.648 48.6641C167.914 49.1016 168.258 49.3906 168.68 49.5312C169.102 49.6719 169.555 49.7422 170.039 49.7422C170.398 49.7422 170.773 49.7109 171.164 49.6484C171.57 49.5703 171.875 49.5078 172.078 49.4609L172.102 53C171.758 53.1094 171.305 53.2109 170.742 53.3047C170.195 53.4141 169.531 53.4688 168.75 53.4688C167.688 53.4688 166.711 53.2578 165.82 52.8359C164.93 52.4141 164.219 51.7109 163.688 50.7266C163.172 49.7266 162.914 48.3828 162.914 46.6953V21.4766ZM187.594 53.4688C185.828 53.4688 184.227 53.1719 182.789 52.5781C181.367 51.9688 180.141 51.1172 179.109 50.0234C178.094 48.9297 177.312 47.6328 176.766 46.1328C176.219 44.6328 175.945 42.9922 175.945 41.2109V40.2266C175.945 38.1641 176.25 36.3281 176.859 34.7188C177.469 33.0938 178.297 31.7188 179.344 30.5938C180.391 29.4688 181.578 28.6172 182.906 28.0391C184.234 27.4609 185.609 27.1719 187.031 27.1719C188.844 27.1719 190.406 27.4844 191.719 28.1094C193.047 28.7344 194.133 29.6094 194.977 30.7344C195.82 31.8438 196.445 33.1562 196.852 34.6719C197.258 36.1719 197.461 37.8125 197.461 39.5938V41.5391H178.523V38H193.125V37.6719C193.062 36.5469 192.828 35.4531 192.422 34.3906C192.031 33.3281 191.406 32.4531 190.547 31.7656C189.688 31.0781 188.516 30.7344 187.031 30.7344C186.047 30.7344 185.141 30.9453 184.312 31.3672C183.484 31.7734 182.773 32.3828 182.18 33.1953C181.586 34.0078 181.125 35 180.797 36.1719C180.469 37.3438 180.305 38.6953 180.305 40.2266V41.2109C180.305 42.4141 180.469 43.5469 180.797 44.6094C181.141 45.6562 181.633 46.5781 182.273 47.375C182.93 48.1719 183.719 48.7969 184.641 49.25C185.578 49.7031 186.641 49.9297 187.828 49.9297C189.359 49.9297 190.656 49.6172 191.719 48.9922C192.781 48.3672 193.711 47.5312 194.508 46.4844L197.133 48.5703C196.586 49.3984 195.891 50.1875 195.047 50.9375C194.203 51.6875 193.164 52.2969 191.93 52.7656C190.711 53.2344 189.266 53.4688 187.594 53.4688ZM206.859 31.625V53H202.523V27.6406H206.742L206.859 31.625ZM214.781 27.5L214.758 31.5312C214.398 31.4531 214.055 31.4062 213.727 31.3906C213.414 31.3594 213.055 31.3438 212.648 31.3438C211.648 31.3438 210.766 31.5 210 31.8125C209.234 32.125 208.586 32.5625 208.055 33.125C207.523 33.6875 207.102 34.3594 206.789 35.1406C206.492 35.9062 206.297 36.75 206.203 37.6719L204.984 38.375C204.984 36.8438 205.133 35.4062 205.43 34.0625C205.742 32.7188 206.219 31.5312 206.859 30.5C207.5 29.4531 208.312 28.6406 209.297 28.0625C210.297 27.4688 211.484 27.1719 212.859 27.1719C213.172 27.1719 213.531 27.2109 213.938 27.2891C214.344 27.3516 214.625 27.4219 214.781 27.5ZM223.5 27.6406V53H219.141V27.6406H223.5ZM218.812 20.9141C218.812 20.2109 219.023 19.6172 219.445 19.1328C219.883 18.6484 220.523 18.4062 221.367 18.4062C222.195 18.4062 222.828 18.6484 223.266 19.1328C223.719 19.6172 223.945 20.2109 223.945 20.9141C223.945 21.5859 223.719 22.1641 223.266 22.6484C222.828 23.1172 222.195 23.3516 221.367 23.3516C220.523 23.3516 219.883 23.1172 219.445 22.6484C219.023 22.1641 218.812 21.5859 218.812 20.9141ZM236.93 53H232.594V24.9688C232.594 23.1406 232.922 21.6016 233.578 20.3516C234.25 19.0859 235.211 18.1328 236.461 17.4922C237.711 16.8359 239.195 16.5078 240.914 16.5078C241.414 16.5078 241.914 16.5391 242.414 16.6016C242.93 16.6641 243.43 16.7578 243.914 16.8828L243.68 20.4219C243.352 20.3438 242.977 20.2891 242.555 20.2578C242.148 20.2266 241.742 20.2109 241.336 20.2109C240.414 20.2109 239.617 20.3984 238.945 20.7734C238.289 21.1328 237.789 21.6641 237.445 22.3672C237.102 23.0703 236.93 23.9375 236.93 24.9688V53ZM242.32 27.6406V30.9688H228.586V27.6406H242.32ZM254.273 50.375L261.328 27.6406H265.969L255.797 56.9141C255.562 57.5391 255.25 58.2109 254.859 58.9297C254.484 59.6641 254 60.3594 253.406 61.0156C252.812 61.6719 252.094 62.2031 251.25 62.6094C250.422 63.0312 249.43 63.2422 248.273 63.2422C247.93 63.2422 247.492 63.1953 246.961 63.1016C246.43 63.0078 246.055 62.9297 245.836 62.8672L245.812 59.3516C245.938 59.3672 246.133 59.3828 246.398 59.3984C246.68 59.4297 246.875 59.4453 246.984 59.4453C247.969 59.4453 248.805 59.3125 249.492 59.0469C250.18 58.7969 250.758 58.3672 251.227 57.7578C251.711 57.1641 252.125 56.3438 252.469 55.2969L254.273 50.375ZM249.094 27.6406L255.68 47.3281L256.805 51.8984L253.688 53.4922L244.359 27.6406H249.094Z" fill="black"/>
<path d="M39.8359 40.3862H28.1245L28.061 35.4668H38.6934C40.4495 35.4668 41.9836 35.1706 43.2954 34.5781C44.6073 33.9857 45.6229 33.1393 46.3423 32.0391C47.0828 30.9176 47.4531 29.5846 47.4531 28.04C47.4531 26.3473 47.1252 24.972 46.4692 23.9141C45.8345 22.835 44.8506 22.0521 43.5176 21.5654C42.2057 21.0576 40.5342 20.8037 38.5029 20.8037H29.4893V62H23.3638V15.7891H38.5029C40.8727 15.7891 42.9886 16.0324 44.8506 16.519C46.7126 16.9845 48.2889 17.7251 49.5796 18.7407C50.8914 19.7352 51.8859 21.0047 52.563 22.5493C53.2401 24.0939 53.5786 25.9453 53.5786 28.1035C53.5786 30.0078 53.092 31.7323 52.1187 33.2769C51.1453 34.8003 49.7912 36.0487 48.0562 37.022C46.3423 37.9953 44.3322 38.6195 42.0259 38.8945L39.8359 40.3862ZM39.5503 62H25.7124L29.1719 57.0171H39.5503C41.4969 57.0171 43.1473 56.6785 44.5015 56.0015C45.8768 55.3244 46.9242 54.3722 47.6436 53.145C48.363 51.8966 48.7227 50.4261 48.7227 48.7334C48.7227 47.0195 48.4159 45.5384 47.8022 44.29C47.1886 43.0417 46.2259 42.0789 44.9141 41.4019C43.6022 40.7248 41.9095 40.3862 39.8359 40.3862H31.1079L31.1714 35.4668H43.105L44.4062 37.2441C46.6279 37.4346 48.5111 38.0693 50.0557 39.1484C51.6003 40.2064 52.7746 41.5605 53.5786 43.2109C54.4038 44.8613 54.8164 46.681 54.8164 48.6699C54.8164 51.5475 54.1816 53.9808 52.9121 55.9697C51.6637 57.9375 49.897 59.4398 47.6118 60.4766C45.3267 61.4922 42.6395 62 39.5503 62Z" fill="white"/>
<defs>
<linearGradient id="paint0_linear_0_1" x1="37.5" y1="0" x2="94" y2="75" gradientUnits="userSpaceOnUse">
<stop stop-color="#FF8A00"/>
<stop offset="1" stop-color="#FF8A00" stop-opacity="0"/>
</linearGradient>
</defs>
</svg>
